<svg width="17" height="18" viewBox="0 0 17 18" fill="none" xmlns="http://www.w3.org/2000/svg">
<path fill-rule="evenodd" clip-rule="evenodd" d="M1.08162 8.3684H3.72725C3.75912 7.44764 3.87387 6.56467 4.05875 5.74365H1.77863C1.38244 6.56787 1.14603 7.45815 1.08162 8.3684ZM2.39594 4.69375H4.34562C4.52271 4.13605 4.7503 3.59527 5.02563 3.07795C5.20934 2.73469 5.4215 2.40705 5.65994 2.09839C4.34347 2.63781 3.21084 3.53842 2.39594 4.69375ZM8.5 0.494141C6.24566 0.494141 4.08365 1.37905 2.48959 2.95421C0.895533 4.52937 0 6.66574 0 8.89335C0 11.121 0.895533 13.2573 2.48959 14.8325C4.08365 16.4076 6.24566 17.2926 8.5 17.2926C10.7543 17.2926 12.9163 16.4076 14.5104 14.8325C16.1045 13.2573 17 11.121 17 8.89335C17 6.66574 16.1045 4.52937 14.5104 2.95421C12.9163 1.37905 10.7543 0.494141 8.5 0.494141V0.494141ZM7.96875 1.62488C7.25688 1.83906 6.55031 2.4858 5.96381 3.57245C5.78 3.91262 5.61319 4.28848 5.46656 4.69375H7.96875V1.62488ZM7.96875 5.74365H5.14994C4.94096 6.60436 4.82064 7.48375 4.79081 8.3684H7.96875V5.74365ZM9.03125 8.3684V5.74365H11.8501C12.0487 6.54682 12.1752 7.43189 12.2092 8.3684H9.03125ZM7.96875 9.4183H4.79188C4.82135 10.3029 4.94132 11.1823 5.14994 12.0431H7.96875V9.4183ZM9.03125 12.0431V9.4183H12.2081C12.1787 10.3029 12.0587 11.1823 11.8501 12.0431H9.03125ZM7.96875 13.093H5.46656C5.61319 13.4982 5.78 13.8741 5.96381 14.2142C6.55031 15.3009 7.25794 15.9466 7.96875 16.1618V13.093ZM5.65994 15.6883C5.42148 15.3797 5.20932 15.052 5.02563 14.7088C4.7503 14.1914 4.52271 13.6506 4.34562 13.093H2.39594C3.21084 14.2483 4.34347 15.1489 5.65994 15.6883ZM1.77863 12.0431H4.05875C3.86661 11.1801 3.75563 10.3014 3.72725 9.4183H1.08162C1.1475 10.3527 1.39081 11.2378 1.77863 12.0431ZM11.3401 15.6883C12.6565 15.1489 13.7892 14.2483 14.6041 13.093H12.6554C12.4779 13.6507 12.25 14.1914 11.9744 14.7088C11.7907 15.052 11.5785 15.3797 11.3401 15.6883ZM11.5334 13.093H9.03125V16.1618C9.74312 15.9476 10.4497 15.3009 11.0362 14.2142C11.2294 13.853 11.3956 13.4782 11.5334 13.093ZM12.9412 12.0431H15.2214C15.6092 11.2378 15.8525 10.3527 15.9184 9.4183H13.2727C13.2444 10.3014 13.1334 11.1801 12.9412 12.0431ZM13.2727 8.3684H15.9184C15.8539 7.45815 15.6175 6.56788 15.2214 5.74365H12.9412C13.1261 6.56467 13.2409 7.44764 13.2727 8.3684ZM12.6544 4.69375C12.4772 4.13608 12.2496 3.59529 11.9744 3.07795C11.7907 2.73467 11.5785 2.40703 11.3401 2.09839C12.6565 2.63781 13.7892 3.53842 14.6041 4.69375H12.6554H12.6544ZM11.5334 4.69375H9.03125V1.62488C9.74312 1.83906 10.4497 2.4858 11.0362 3.57245C11.22 3.91262 11.3868 4.28848 11.5334 4.69375Z" fill="black"/>
</svg>
