<svg width="619" height="836" viewBox="0 0 619 836" fill="none" xmlns="http://www.w3.org/2000/svg">
<path fill-rule="evenodd" clip-rule="evenodd" d="M618 418C585.472 457.02 561.803 595.126 595.288 791.072C598.783 811.523 577.983 836.534 544.543 834.926C461.41 830.928 432.377 808.515 309.498 834.926C186.62 808.515 157.59 830.928 74.4572 834.926C41.0167 836.534 20.2173 811.523 23.7118 791.072C57.1967 595.126 28.3981 450.866 1 418C28.3916 385.142 57.1967 240.874 23.7118 44.9281C20.2173 24.4769 41.0167 -0.533833 74.4572 1.07366C157.59 5.07171 186.623 27.485 309.498 1.07366C432.377 27.485 461.41 5.07171 544.543 1.07366C577.983 -0.533833 598.783 24.4769 595.288 44.9281C561.803 240.874 586.487 380.197 618 418Z" fill="#B22A22" stroke="#B22A22" stroke-width="1.14735" stroke-miterlimit="22.9256"/>
<path fill-rule="evenodd" clip-rule="evenodd" d="M608.623 418C577.084 455.96 554.135 590.313 586.602 780.934C589.99 800.829 569.823 825.161 537.399 823.597C456.793 819.707 428.642 797.903 309.498 823.597C190.355 797.903 162.207 819.707 81.6014 823.597C49.1774 825.161 29.0101 800.829 32.3984 780.934C64.8656 590.313 36.9423 449.973 10.377 418C36.936 386.034 64.8656 245.687 32.3984 55.066C29.0101 35.1705 49.1774 10.8394 81.6014 12.4032C162.207 16.2926 190.358 38.0969 309.498 12.4032C428.642 38.0969 456.793 16.2926 537.399 12.4032C569.823 10.8394 589.99 35.1705 586.602 55.066C554.135 245.687 578.068 381.224 608.623 418Z" fill="#FEFEFE" stroke="#B22A22" stroke-width="1.14735" stroke-miterlimit="22.9256"/>
<path fill-rule="evenodd" clip-rule="evenodd" d="M594.613 417.997C564.552 454.324 542.677 582.902 573.623 765.329C576.853 784.369 557.631 807.655 526.726 806.158C449.896 802.436 423.065 781.569 309.504 806.158C195.942 781.569 169.114 802.436 92.2845 806.158C61.3797 807.655 42.1573 784.369 45.3868 765.329C76.3328 582.902 49.7178 448.595 24.3972 417.997C49.7118 387.405 76.3328 253.091 45.3868 70.6639C42.1573 51.6237 61.3797 28.3385 92.2845 29.8351C169.114 33.5573 195.945 54.4243 309.504 29.8351C423.065 54.4243 449.896 33.5573 526.726 29.8351C557.631 28.3385 576.853 51.6237 573.623 70.6639C542.677 253.091 565.489 382.802 594.613 417.997Z" fill="#FEFEFE" stroke="#B22A22" stroke-width="1.14735" stroke-miterlimit="22.9256"/>
</svg>
