<svg width="19" height="15" viewBox="0 0 19 15" fill="none" xmlns="http://www.w3.org/2000/svg">
<path d="M14.7273 11.971L14.7778 12.0169L14.8283 11.971L17.7333 9.327L18.8886 10.3784L14.7778 14.1198L11.9336 11.5313L13.0889 10.4798L14.7273 11.971ZM1.68889 11.222H10.0583V12.6091H1.68889C0.794619 12.6091 0.075 11.9445 0.075 11.147V1.92432C0.075 1.12682 0.794619 0.462207 1.68889 0.462207H15.2C16.0943 0.462207 16.8139 1.12682 16.8139 1.92432V7.2292H15.275V3.46143V3.33248L15.1629 3.39624L8.44444 7.21792L1.72597 3.39624L1.61389 3.33248V3.46143V11.147V11.222H1.68889ZM15.2371 1.98951L15.4835 1.84932H15.2H1.68889H1.40535L1.65181 1.98951L8.40736 5.83228L8.44444 5.85338L8.48153 5.83228L15.2371 1.98951Z" fill="black" stroke="black" stroke-width="0.15"/>
</svg>
