<svg width="186" height="140" viewBox="0 0 186 140" fill="none" xmlns="http://www.w3.org/2000/svg">
<path fill-rule="evenodd" clip-rule="evenodd" d="M92.5532 139C84.7885 123.103 34.3181 132.031 6.86116 132.031C4.13243 132.782 0.795351 128.313 1.00983 121.129C1.54328 103.268 4.5338 97.0303 1.00983 70.6303C4.5338 44.2303 1.54328 37.9934 1.00983 20.1326C0.795351 12.9481 4.13243 8.47938 6.86116 9.23016C33.1034 9.23016 84.7885 16.8972 92.5532 1C100.318 16.8972 151.828 9.23016 179.154 9.23016C181.883 8.47938 185.22 12.9481 185.006 20.1326C184.472 37.9934 181.482 44.2311 185.006 70.6303C181.482 97.0303 184.472 103.268 185.006 121.129C185.22 128.313 181.883 132.782 179.154 132.031C150.613 132.031 100.318 123.103 92.5532 139Z" fill="#B22A22" stroke="#B22A22" stroke-width="0.755795" stroke-miterlimit="22.9256"/>
<path fill-rule="evenodd" clip-rule="evenodd" d="M92.5588 136.677C84.8888 121.315 35.0339 129.943 7.91175 129.943C5.2163 130.669 1.91992 126.35 2.13178 119.408C2.65872 102.148 5.61277 96.1207 2.13178 70.6096C5.61277 45.0985 2.65872 39.0716 2.13178 21.8122C1.91992 14.8695 5.2163 10.5513 7.91175 11.2768C33.834 11.2768 84.8888 18.6856 92.5588 3.32373C100.229 18.6856 151.11 11.2768 178.104 11.2768C180.799 10.5513 184.096 14.8695 183.884 21.8122C183.357 39.0716 180.403 45.0992 183.884 70.6096C180.403 96.1207 183.357 102.148 183.884 119.408C184.096 126.35 180.799 130.669 178.104 129.943C149.91 129.943 100.229 121.315 92.5588 136.677Z" fill="#FEFEFE" stroke="#B22A22" stroke-width="0.755795" stroke-miterlimit="22.9256"/>
<path fill-rule="evenodd" clip-rule="evenodd" d="M92.5644 132.495C84.989 118.097 35.7496 126.184 8.96234 126.184C6.30017 126.864 3.04448 122.816 3.25373 116.309C3.77417 100.132 6.69175 94.4824 3.25373 70.5712C6.69175 46.6601 3.77417 41.0112 3.25373 24.8343C3.04448 18.327 6.30017 14.2796 8.96234 14.9596C34.5645 14.9596 84.989 21.9038 92.5644 7.50537C100.14 21.9038 150.393 14.9596 177.053 14.9596C179.715 14.2796 182.971 18.327 182.762 24.8343C182.241 41.0112 179.324 46.6608 182.762 70.5712C179.324 94.4824 182.241 100.132 182.762 116.309C182.971 122.816 179.715 126.864 177.053 126.184C149.208 126.184 100.14 118.097 92.5644 132.495Z" fill="#F4F4F4" stroke="#B22A22" stroke-width="0.755795" stroke-miterlimit="22.9256"/>
</svg>
