<svg width="17" height="17" viewBox="0 0 17 17" fill="none" xmlns="http://www.w3.org/2000/svg">
<path fill-rule="evenodd" clip-rule="evenodd" d="M1.08162 7.87426H3.72725C3.75912 6.9535 3.87387 6.07053 4.05875 5.24951H1.77863C1.38244 6.07373 1.14603 6.964 1.08162 7.87426ZM2.39594 4.1996H4.34562C4.52271 3.64191 4.7503 3.10113 5.02563 2.58381C5.20934 2.24055 5.4215 1.91291 5.65994 1.60425C4.34347 2.14367 3.21084 3.04428 2.39594 4.1996ZM8.5 0C6.24566 0 4.08365 0.884914 2.48959 2.46007C0.895533 4.03523 0 6.1716 0 8.39921C0 10.6268 0.895533 12.7632 2.48959 14.3383C4.08365 15.9135 6.24566 16.7984 8.5 16.7984C10.7543 16.7984 12.9163 15.9135 14.5104 14.3383C16.1045 12.7632 17 10.6268 17 8.39921C17 6.1716 16.1045 4.03523 14.5104 2.46007C12.9163 0.884914 10.7543 0 8.5 0V0ZM7.96875 1.13074C7.25688 1.34492 6.55031 1.99166 5.96381 3.07831C5.78 3.41848 5.61319 3.79434 5.46656 4.1996H7.96875V1.13074ZM7.96875 5.24951H5.14994C4.94096 6.11022 4.82064 6.98961 4.79081 7.87426H7.96875V5.24951ZM9.03125 7.87426V5.24951H11.8501C12.0487 6.05268 12.1752 6.93775 12.2092 7.87426H9.03125ZM7.96875 8.92416H4.79188C4.82135 9.80877 4.94132 10.6882 5.14994 11.5489H7.96875V8.92416ZM9.03125 11.5489V8.92416H12.2081C12.1787 9.80877 12.0587 10.6882 11.8501 11.5489H9.03125ZM7.96875 12.5988H5.46656C5.61319 13.0041 5.78 13.3799 5.96381 13.7201C6.55031 14.8068 7.25794 15.4524 7.96875 15.6677V12.5988ZM5.65994 15.1942C5.42148 14.8855 5.20932 14.5579 5.02563 14.2146C4.7503 13.6973 4.52271 13.1565 4.34562 12.5988H2.39594C3.21084 13.7541 4.34347 14.6548 5.65994 15.1942ZM1.77863 11.5489H4.05875C3.86661 10.686 3.75563 9.8073 3.72725 8.92416H1.08162C1.1475 9.85857 1.39081 10.7436 1.77863 11.5489ZM11.3401 15.1942C12.6565 14.6548 13.7892 13.7541 14.6041 12.5988H12.6554C12.4779 13.1565 12.25 13.6973 11.9744 14.2146C11.7907 14.5579 11.5785 14.8855 11.3401 15.1942ZM11.5334 12.5988H9.03125V15.6677C9.74312 15.4535 10.4497 14.8068 11.0362 13.7201C11.2294 13.3588 11.3956 12.9841 11.5334 12.5988ZM12.9412 11.5489H15.2214C15.6092 10.7436 15.8525 9.85857 15.9184 8.92416H13.2727C13.2444 9.8073 13.1334 10.686 12.9412 11.5489ZM13.2727 7.87426H15.9184C15.8539 6.96401 15.6175 6.07374 15.2214 5.24951H12.9412C13.1261 6.07053 13.2409 6.9535 13.2727 7.87426ZM12.6544 4.1996C12.4772 3.64193 12.2496 3.10115 11.9744 2.58381C11.7907 2.24053 11.5785 1.91289 11.3401 1.60425C12.6565 2.14367 13.7892 3.04428 14.6041 4.1996H12.6554H12.6544ZM11.5334 4.1996H9.03125V1.13074C9.74312 1.34492 10.4497 1.99166 11.0362 3.07831C11.22 3.41848 11.3868 3.79434 11.5334 4.1996Z" fill="url(#paint0_linear_289_4335)"/>
<defs>
<linearGradient id="paint0_linear_289_4335" x1="8.5" y1="0" x2="8.5" y2="16.7984" gradientUnits="userSpaceOnUse">
<stop/>
<stop offset="1" stop-color="#E10000"/>
</linearGradient>
</defs>
</svg>
