<svg width="17" height="18" viewBox="0 0 17 18" fill="none" xmlns="http://www.w3.org/2000/svg">
<path fill-rule="evenodd" clip-rule="evenodd" d="M1.16866 8.20768C5.73205 5.83704 8.77503 4.27417 10.2976 3.51906C14.6448 1.36309 15.5481 0.988573 16.1369 0.976206C16.2664 0.973486 16.5559 1.01175 16.7435 1.19321C16.9018 1.34643 16.9454 1.55341 16.9663 1.69868C16.9871 1.84395 17.0131 2.17488 16.9924 2.43346C16.7569 5.38482 15.7375 12.547 15.2189 15.8526C14.9995 17.2513 14.5674 17.7203 14.1492 17.7662C13.2401 17.8659 12.5498 17.0498 11.6694 16.3617C10.2916 15.2848 9.5133 14.6145 8.17597 13.5637C6.63045 12.3493 7.63235 11.6819 8.51313 10.5911C8.74364 10.3056 12.7489 5.96171 12.8264 5.56766C12.8361 5.51837 12.8451 5.33467 12.7536 5.23766C12.6621 5.14066 12.527 5.17383 12.4295 5.20021C12.2913 5.23761 10.0904 6.97219 5.82663 10.404C5.2019 10.9155 4.63604 11.1647 4.12904 11.1516C3.57012 11.1372 2.49499 10.7748 1.69573 10.465C0.715411 10.0851 -0.063727 9.88418 0.00411841 9.23889C0.0394565 8.90278 0.427637 8.55905 1.16866 8.20768Z" fill="url(#paint0_linear_289_4341)"/>
<defs>
<linearGradient id="paint0_linear_289_4341" x1="8.5" y1="0.976074" x2="8.5" y2="17.7745" gradientUnits="userSpaceOnUse">
<stop/>
<stop offset="1" stop-color="#E10000"/>
</linearGradient>
</defs>
</svg>
