<svg width="466" height="202" viewBox="0 0 466 202" fill="none" xmlns="http://www.w3.org/2000/svg">
<path fill-rule="evenodd" clip-rule="evenodd" d="M231.967 201C212.379 177.961 85.0536 190.9 15.7863 190.9C8.90238 191.988 0.483718 185.512 1.0248 175.1C2.37056 149.214 9.91493 140.174 1.0248 101.914C9.91493 63.6527 2.37056 54.6137 1.0248 28.7285C0.483718 18.316 8.90238 11.8397 15.7863 12.9278C81.9892 12.9278 212.379 24.0394 231.967 1C251.556 24.0394 381.502 12.9278 450.441 12.9278C457.325 11.8397 465.743 18.316 465.202 28.7285C463.857 54.6137 456.312 63.6537 465.202 101.914C456.312 140.174 463.857 149.214 465.202 175.1C465.743 185.512 457.325 191.988 450.441 190.9C378.438 190.9 251.556 177.961 231.967 201Z" fill="#B22A22" stroke="#B22A22" stroke-width="0.755795" stroke-miterlimit="22.9256"/>
<path fill-rule="evenodd" clip-rule="evenodd" d="M231.981 197.633C212.632 175.37 86.8597 187.874 18.437 187.874C11.6371 188.925 3.32107 182.667 3.85556 172.605C5.1849 147.591 12.6373 138.856 3.85556 101.883C12.6373 64.9104 5.1849 56.1757 3.85556 31.162C3.32107 21.1002 11.6371 14.8419 18.437 15.8933C83.8326 15.8933 212.632 26.6308 231.981 4.36719C251.331 26.6308 379.693 15.8933 447.791 15.8933C454.591 14.8419 462.907 21.1002 462.373 31.162C461.043 56.1757 453.591 64.9114 462.373 101.883C453.591 138.856 461.043 147.591 462.373 172.605C462.907 182.667 454.591 188.925 447.791 187.874C376.666 187.874 251.331 175.37 231.981 197.633Z" fill="#FEFEFE" stroke="#B22A22" stroke-width="0.755795" stroke-miterlimit="22.9256"/>
<path fill-rule="evenodd" clip-rule="evenodd" d="M231.995 191.573C212.884 170.705 88.6647 182.425 21.0868 182.425C14.3708 183.411 6.15744 177.545 6.68533 168.114C7.99826 144.669 15.3586 136.481 6.68533 101.828C15.3586 67.1738 7.99826 58.9869 6.68533 35.5421C6.15744 26.1113 14.3708 20.2455 21.0868 21.231C85.675 21.231 212.884 31.295 231.995 10.4277C251.106 31.295 377.883 21.231 445.14 21.231C451.856 20.2455 460.069 26.1113 459.542 35.5421C458.229 58.9869 450.868 67.1747 459.542 101.828C450.868 136.481 458.229 144.669 459.542 168.114C460.069 177.545 451.856 183.411 445.14 182.425C374.893 182.425 251.106 170.705 231.995 191.573Z" fill="#F4F4F4" stroke="#B22A22" stroke-width="0.755795" stroke-miterlimit="22.9256"/>
</svg>
