<svg width="20" height="21" viewBox="0 0 20 21" fill="none" xmlns="http://www.w3.org/2000/svg">
<path d="M15.34 4.40725C15.1027 4.40725 14.8707 4.4768 14.6733 4.60709C14.476 4.73739 14.3222 4.92258 14.2313 5.13925C14.1405 5.35592 14.1168 5.59434 14.1631 5.82436C14.2094 6.05437 14.3236 6.26566 14.4915 6.43149C14.6593 6.59732 14.8731 6.71026 15.1059 6.75601C15.3387 6.80176 15.5799 6.77828 15.7992 6.68853C16.0185 6.59879 16.2059 6.4468 16.3378 6.2518C16.4696 6.0568 16.54 5.82755 16.54 5.59302C16.54 5.27854 16.4136 4.97693 16.1885 4.75456C15.9635 4.53218 15.6583 4.40725 15.34 4.40725ZM19.94 6.79856C19.9206 5.97869 19.7652 5.16753 19.48 4.39737C19.2257 3.73841 18.83 3.14172 18.32 2.64836C17.8248 2.14186 17.2196 1.75328 16.55 1.512C15.7727 1.22164 14.9508 1.06458 14.12 1.04757C13.06 0.988281 12.72 0.988281 10 0.988281C7.28 0.988281 6.94 0.988281 5.88 1.04757C5.04915 1.06458 4.22734 1.22164 3.45 1.512C2.78168 1.75572 2.17693 2.14397 1.68 2.64836C1.16743 3.13767 0.774176 3.73575 0.53 4.39737C0.236161 5.1655 0.07721 5.97756 0.0599999 6.79856C-5.58794e-08 7.84599 0 8.18196 0 10.8697C0 13.5575 -5.58794e-08 13.8934 0.0599999 14.9409C0.07721 15.7618 0.236161 16.5739 0.53 17.342C0.774176 18.0037 1.16743 18.6017 1.68 19.091C2.17693 19.5954 2.78168 19.9837 3.45 20.2274C4.22734 20.5178 5.04915 20.6748 5.88 20.6918C6.94 20.7511 7.28 20.7511 10 20.7511C12.72 20.7511 13.06 20.7511 14.12 20.6918C14.9508 20.6748 15.7727 20.5178 16.55 20.2274C17.2196 19.9861 17.8248 19.5975 18.32 19.091C18.8322 18.5995 19.2283 18.0023 19.48 17.342C19.7652 16.5719 19.9206 15.7607 19.94 14.9409C19.94 13.8934 20 13.5575 20 10.8697C20 8.18196 20 7.84599 19.94 6.79856ZM18.14 14.8223C18.1327 15.4495 18.0178 16.071 17.8 16.6602C17.6403 17.0903 17.3839 17.4788 17.05 17.7966C16.7256 18.1232 16.3332 18.3761 15.9 18.5377C15.3037 18.7529 14.6748 18.8665 14.04 18.8737C13.04 18.9231 12.67 18.9329 10.04 18.9329C7.41 18.9329 7.04 18.9329 6.04 18.8737C5.38089 18.8859 4.72459 18.7856 4.1 18.5772C3.68578 18.4073 3.31136 18.1551 3 17.8361C2.66809 17.5187 2.41484 17.1298 2.26 16.6997C2.01586 16.1021 1.88044 15.4665 1.86 14.8223C1.86 13.8341 1.8 13.4685 1.8 10.8697C1.8 8.27089 1.8 7.90528 1.86 6.91714C1.86448 6.27589 1.98295 5.6404 2.21 5.03966C2.38605 4.62258 2.65627 4.25079 3 3.95271C3.30381 3.61295 3.67929 3.34312 4.1 3.16219C4.70955 2.94485 5.352 2.83125 6 2.82623C7 2.82623 7.37 2.76694 10 2.76694C12.63 2.76694 13 2.76694 14 2.82623C14.6348 2.83342 15.2637 2.94702 15.86 3.16219C16.3144 3.32885 16.7223 3.59979 17.05 3.95271C17.3777 4.25624 17.6338 4.62735 17.8 5.03966C18.0223 5.64138 18.1373 6.2766 18.14 6.91714C18.19 7.90528 18.2 8.27089 18.2 10.8697C18.2 13.4685 18.19 13.8341 18.14 14.8223ZM10 5.80053C8.98581 5.80249 7.99496 6.10145 7.15265 6.65964C6.31035 7.21784 5.65438 8.01021 5.26763 8.93665C4.88089 9.86309 4.78072 10.882 4.97979 11.8647C5.17886 12.8474 5.66824 13.7497 6.38608 14.4576C7.10392 15.1656 8.01801 15.6474 9.01286 15.8422C10.0077 16.037 11.0387 15.936 11.9755 15.5521C12.9123 15.1681 13.7129 14.5184 14.2761 13.685C14.8394 12.8515 15.14 11.8719 15.14 10.8697C15.1413 10.2028 15.0092 9.54224 14.7512 8.92598C14.4933 8.30973 14.1146 7.74995 13.6369 7.27885C13.1592 6.80774 12.5919 6.4346 11.9678 6.1809C11.3436 5.92719 10.6749 5.79793 10 5.80053ZM10 14.1602C9.34139 14.1602 8.69757 13.9672 8.14995 13.6057C7.60234 13.2441 7.17552 12.7302 6.92348 12.1289C6.67144 11.5277 6.6055 10.8661 6.73398 10.2278C6.86247 9.58946 7.17963 9.00315 7.64533 8.54296C8.11104 8.08277 8.70439 7.76938 9.35035 7.64242C9.99631 7.51545 10.6659 7.58061 11.2743 7.82967C11.8828 8.07872 12.4029 8.50047 12.7688 9.04159C13.1347 9.58272 13.33 10.2189 13.33 10.8697C13.33 11.3018 13.2439 11.7297 13.0765 12.1289C12.9092 12.5282 12.6639 12.8909 12.3547 13.1964C12.0454 13.502 11.6784 13.7444 11.2743 13.9097C10.8703 14.0751 10.4373 14.1602 10 14.1602Z" fill="url(#paint0_linear_289_4338)"/>
<defs>
<linearGradient id="paint0_linear_289_4338" x1="10" y1="0.988281" x2="10" y2="20.7511" gradientUnits="userSpaceOnUse">
<stop/>
<stop offset="1" stop-color="#E10000"/>
</linearGradient>
</defs>
</svg>
